<?xml version="1.0" encoding="UTF-8" standalone="no"?>
<svg width="89px" height="23px" viewBox="0 0 89 23" version="1.1" xmlns="http://www.w3.org/2000/svg" xmlns:xlink="http://www.w3.org/1999/xlink" xmlns:sketch="http://www.bohemiancoding.com/sketch/ns">
    <!-- Generator: Sketch 3.4.1 (15681) - http://www.bohemiancoding.com/sketch -->
    <title>Shape</title>
    <desc>Created with Sketch.</desc>
    <defs></defs>
    <g id="Page-1" stroke="none" stroke-width="1" fill="none" fill-rule="evenodd" sketch:type="MSPage">
        <path d="M15.535,0.309 L24.383,0.309 C24.42,0.42 24.457,0.604 24.53,0.604 C26.115,0.751 27.737,0.936 29.323,1.01 C30.429,1.084 31.535,1.121 32.641,1.01 C33.71,0.899 34.706,0.641 35.811,0.641 C38.687,0.715 41.562,0.678 44.475,0.678 C44.733,0.936 44.991,1.157 45.249,1.415 C46.392,1.452 47.535,1.268 48.604,1.784 C51,1.6 53.434,2.19 55.83,1.415 C57.71,1.562 59.554,1.083 61.397,1.083 C63.793,1.083 66.19,0.936 68.623,1.341 C70.651,1.71 72.789,1.488 74.853,1.378 C76.696,1.267 78.282,2.042 80.014,2.41 C78.134,2.521 76.217,2.521 74.337,2.557 C74.3,2.557 74.226,2.631 74.226,2.668 C74.226,2.705 74.263,2.742 74.3,2.926 C75.553,2.779 76.844,3.11 78.134,3.258 C79.535,3.405 80.936,3.295 82.374,3.295 L83.849,3.295 C84.844,3.295 85.803,3.258 86.798,3.332 C87.277,3.369 87.757,3.627 88.568,3.922 C88.052,4.254 87.72,4.438 87.499,4.549 L87.499,5.323 C87.794,5.544 88.052,5.692 88.421,5.987 C87.868,6.429 87.426,6.798 87.278,6.909 C86.983,7.904 86.799,8.531 86.614,9.232 C86.282,9.048 86.024,8.384 85.582,9.306 C85.988,9.748 86.43,10.228 86.872,10.67 C87.572,10.707 88.236,10.707 88.199,11.813 L85.323,11.813 C85.802,12.219 86.023,12.403 86.282,12.624 L88.199,12.624 C88.199,12.698 88.199,12.735 88.236,12.808 C87.499,13.029 86.761,13.25 85.95,13.472 C86.872,13.73 87.646,14.136 88.568,14.025 L88.568,14.762 L87.462,14.762 C87.462,15.352 87.278,15.942 87.499,16.237 C87.831,16.716 87.61,17.011 87.425,17.49 C87.978,17.748 87.757,18.67 88.568,18.78 L88.568,19.517 C87.72,19.517 86.909,19.48 86.061,19.517 C85.914,19.517 85.766,19.738 85.619,19.886 C85.619,19.886 85.582,19.849 85.582,19.812 C85.471,19.886 85.398,19.996 85.287,20.07 C85.324,20.107 85.361,20.144 85.398,20.181 C85.472,20.07 85.582,19.997 85.619,19.849 C85.84,19.886 86.098,19.923 86.504,19.996 C85.914,20.66 85.472,21.176 85.066,21.655 C83.813,21.766 82.633,21.729 81.453,21.95 C80.236,22.208 78.835,22.392 77.582,21.655 C75.259,21.692 72.937,21.692 70.614,21.729 C70.245,22.429 69.987,21.582 69.619,21.618 C68.587,21.692 67.518,20.807 66.448,21.655 C66.374,21.729 66.153,21.729 66.079,21.655 C65.194,20.991 64.236,21.434 63.351,21.286 C62.687,21.986 61.876,22.06 61.028,22.06 C59.811,22.023 58.595,22.023 57.341,22.06 C57.194,22.06 57.009,22.281 56.862,22.429 L55.387,22.429 C55.24,22.318 55.092,22.097 54.908,22.06 C50.632,21.913 46.355,22.355 42.115,21.691 C42.004,21.691 41.894,21.617 41.783,21.58 C41.746,21.285 41.709,21.027 41.672,20.621 C41.193,20.621 40.713,20.621 40.234,20.658 C40.234,20.658 40.271,20.621 40.308,20.621 C40.234,20.51 40.124,20.437 40.05,20.326 C40.013,20.363 39.976,20.4 39.939,20.437 C40.05,20.511 40.123,20.621 40.271,20.658 C39.718,21.137 39.165,21.617 38.501,22.17 C38.169,22.133 37.727,22.17 37.395,21.986 C35.994,21.286 34.556,21.027 33.008,21.027 C31.46,20.99 29.874,21.359 28.4,20.695 C26.667,20.916 24.935,20.437 23.239,20.326 C22.539,20.289 21.875,20.363 21.174,19.994 C20.658,19.699 19.957,19.662 19.331,19.588 C16.714,19.293 14.17,19.994 11.589,19.957 C11.515,19.957 11.442,19.92 11.405,19.957 C10.152,20.731 8.788,20.104 7.497,20.326 C6.686,19.699 5.764,20.068 4.88,19.957 C3.958,19.846 3.037,19.699 2.041,19.551 C1.525,18.961 1.009,18.371 0.493,17.745 L0.493,14.058 C0.604,13.911 0.825,13.763 0.862,13.579 C0.899,12.731 0.862,11.846 0.899,10.998 C0.936,10.003 0.752,8.97 1.231,8.012 C1.415,7.643 1.637,7.017 1.452,6.759 C1.12,6.28 1.452,5.727 1.194,5.395 C0.42,4.363 0.973,3.515 1.341,2.667 C2.005,2.409 2.631,2.003 3.295,1.93 C4.18,1.819 5.028,1.783 5.912,1.561 C6.796,1.339 7.755,1.414 8.714,1.229 C10.373,0.86 12.143,0.897 13.875,0.787 C14.354,0.75 14.87,0.787 15.35,0.75 C15.35,0.639 15.461,0.418 15.534,0.308 L15.535,0.309 Z M77.396,21.249 C76.327,21.065 75.258,20.77 74.225,21.249 L77.396,21.249 L77.396,21.249 Z" id="Shape" fill="#444444" sketch:type="MSShapeGroup"></path>
    </g>
</svg>