<?xml version="1.0" encoding="UTF-8" standalone="no"?>
<svg width="54px" height="16px" viewBox="0 0 54 16" version="1.1" xmlns="http://www.w3.org/2000/svg" xmlns:xlink="http://www.w3.org/1999/xlink" xmlns:sketch="http://www.bohemiancoding.com/sketch/ns">
    <!-- Generator: Sketch 3.4.1 (15681) - http://www.bohemiancoding.com/sketch -->
    <title>Shape</title>
    <desc>Created with Sketch.</desc>
    <defs></defs>
    <g id="Page-1" stroke="none" stroke-width="1" fill="none" fill-rule="evenodd" sketch:type="MSPage">
        <path d="M19.653,15.046 C19.456,15.13 19.709,15.158 19.85,15.158 C19.513,15.579 19.092,15.102 18.727,15.046 C17.716,14.934 16.622,15.046 15.583,15.046 C10.811,15.018 19.26,15.186 14.881,15.158 C13.59,15.158 12.27,15.214 11.035,15.158 C10.474,15.13 9.828,14.905 9.21,14.849 C8.536,14.793 7.806,14.905 7.189,14.737 C6.936,14.681 6.684,14.428 6.375,14.344 C5.926,14.204 5.449,14.26 5.056,14.147 C4.354,13.922 3.765,13.529 3.035,13.838 C2.979,13.249 2.333,13.277 2.137,12.827 C3.007,12.939 4.748,13.08 5.169,12.715 C3.569,12.35 2.615,12.126 0.93,12.21 C1.07,12.013 1.463,12.07 1.632,11.901 C1.267,11.592 0.818,11.368 0.509,11.003 C1.042,10.526 2.558,10.778 2.642,9.992 C2.67,9.459 2.305,9.571 1.94,9.178 C1.743,8.364 2.305,7.55 2.249,6.764 C2.137,5.529 0.986,3.087 0.424,2.189 C8.985,0.084 7.778,1.178 16.985,1.15 C20.971,1.15 11.259,1.824 15.834,1.824 C16.395,1.88 15.469,1.459 16.031,1.515 C20.494,1.908 25.968,1.459 31.189,1.318 C33.743,1.234 36.438,1.374 39.077,1.318 C40.031,1.29 41.042,1.121 41.996,1.121 C48.059,1.093 7.722,1.205 13.701,0.953 C15.61,0.869 18.248,0.925 20.971,0.953 C22.459,0.953 9.603,1.767 11.034,1.739 C11.652,1.739 12.466,1.683 13.055,1.542 C13.28,1.486 13.504,1.289 13.757,1.233 C15.469,0.952 17.266,1.205 18.922,1.121 C19.147,1.121 19.427,1.037 19.624,1.009 C23.835,0.7 27.315,1.093 31.947,0.7 C34.726,0.475 37.196,0.812 39.919,0.812 C41.126,0.812 41.968,1.009 42.642,0.307 C45.309,0.082 48.34,-0.17 50.614,0.616 C50.67,0.981 49.996,0.616 50.109,1.009 C50.165,1.683 51.148,1.991 51.737,1.823 C51.625,2.384 52.326,2.805 52.439,3.03 C52.551,3.311 52.046,5.36 51.821,5.612 C51.568,5.865 51.428,6.173 51.203,6.426 C51.792,6.763 52.466,6.314 53.224,6.623 C53.168,7.437 53.056,8.504 53.926,8.251 C53.729,8.419 53.814,8.56 53.729,8.756 C53.561,9.121 52.971,9.261 52.831,9.767 C52.775,9.964 52.803,10.974 52.831,11.479 C52.859,11.788 53.056,12.097 53.027,12.377 C52.971,12.938 52.522,13.219 52.522,13.781 C51.876,14.09 51.259,14.399 50.697,14.792 C44.971,15.269 38.065,15.129 31.806,15.297 C28.606,15.381 24.62,15.353 21.083,15.494 C18.613,15.606 16.199,15.747 13.111,15.803 C11.792,15.831 10.472,15.663 9.181,15.691 C8.788,15.691 22.655,15.102 22.234,15.102 C21.588,15.102 20.578,15.158 19.511,15.214 C15.329,15.411 22.543,15.411 18.5,15.523 C17.826,15.551 17.153,15.663 16.591,15.635 C15.945,15.579 15.328,15.27 14.682,15.242 C12.801,15.158 46.205,15.017 44.296,15.102 C43.454,15.13 42.668,15.27 41.882,15.214 C41.321,15.158 40.394,14.961 39.243,15.017 C36.492,15.185 33.882,15.242 31.159,15.326 C31.131,15.41 31.187,15.41 31.271,15.438 C31.439,15.494 31.271,15.55 31.159,15.55 C30.12,15.241 28.324,15.41 26.724,15.438 C23.749,15.522 20.942,15.494 17.433,15.635 C17.068,15.663 16.703,15.691 16.31,15.747 C14.991,15.887 13.307,15.831 11.65,15.859 C11.201,16.196 24.422,15.382 23.103,15.382 C21.924,15.354 21.082,15.214 19.65,15.045 L19.653,15.046 Z" id="Shape" fill="#444444" sketch:type="MSShapeGroup"></path>
    </g>
</svg>